<?xml version="1.0" encoding="UTF-8" standalone="no"?>
<svg
   width="88.303543"
   height="26.797913"
   viewBox="0 0 88.303543 26.797913"
   preserveAspectRatio="xMinYMid"
   version="1.1"
   id="svg2"
   xmlns="http://www.w3.org/2000/svg"
   xmlns:svg="http://www.w3.org/2000/svg">
  <defs
     id="defs2" />
  <g
     id="g2"
     transform="translate(-6.2100206,0.71065404)">
    <path
       d="M 20.948769,16.089347 H 6.2100206 V -0.71065404 H 20.948769 V 1.6893461 H 8.2457593 V 13.689347 H 20.948769 Z M 19.218391,8.8893465 H 9.2636287 V 6.4893464 H 19.218391 Z M 37.485745,16.089347 H 34.818927 L 29.241003,9.3213465 23.683436,16.089347 h -2.666818 l 6.901154,-8.4000006 -6.901154,-8.40000044 h 2.666818 z m 0,-16.80000104 -6.209004,7.53600044 -1.32323,-1.6080001 4.865416,-5.92800034 z M 54.653812,16.089347 h -2.035738 v -4.8 H 41.238294 V 8.8893465 h 11.37978 V 1.6893461 h -7.308303 q -1.384302,0 -2.544673,0.816 -1.160371,0.7920001 -1.852522,2.1600002 -0.671794,1.368 -0.671794,3.0240001 V 16.089347 H 38.205043 V 7.6893464 q 0,-1.7280001 0.54965,-3.2400002 0.549649,-1.536 1.526804,-2.6880001 0.977154,-1.17600007 2.25967,-1.8240001 1.302872,-0.64800004 2.768604,-0.64800004 h 9.344041 z M 73.124765,-0.71065404 65.633247,16.089347 H 63.312504 L 55.820986,-0.71065404 h 2.320742 L 64.472876,13.497347 70.804023,-0.71065404 Z M 76.327646,16.089347 H 74.291907 V -0.71065404 h 2.035739 z M 94.513567,1.6893461 81.423767,13.689347 h 13.0898 v 2.4 H 78.044441 v -2.4 L 91.21567,1.6893461 H 78.044441 v -2.40000014 h 16.469126 z"
       id="text1"
       style="font-size:24px;font-family:'Bruno Ace SC', Arial, sans-serif;letter-spacing:-1;dominant-baseline:middle;text-anchor:middle;fill:#90FF80"
       aria-label="exaviz" />
    <path
       d="m 11.230713,25.98179 v -6.442383 h 0.852539 v 6.442383 z m 2.959961,-2.333496 q 0,-1.296387 0.720703,-1.92041 0.602051,-0.518555 1.467773,-0.518555 0.962403,0 1.573243,0.632812 0.610839,0.628418 0.610839,1.740235 0,0.900879 -0.272461,1.419433 -0.268066,0.514161 -0.786621,0.799805 -0.51416,0.285645 -1.125,0.285645 -0.97998,0 -1.586425,-0.628418 -0.602051,-0.628418 -0.602051,-1.810547 z m 0.812988,0 q 0,0.896484 0.391113,1.344726 0.391114,0.443848 0.984375,0.443848 0.588868,0 0.979981,-0.448242 0.391113,-0.448242 0.391113,-1.366699 0,-0.865723 -0.395508,-1.309571 -0.391113,-0.448242 -0.975586,-0.448242 -0.593261,0 -0.984375,0.443848 -0.391113,0.443847 -0.391113,1.340332 z m 7.227051,2.333496 V 20.299661 H 20.108154 V 19.539407 H 25.2146 v 0.760254 h -2.131348 v 5.682129 z m 9.756348,-1.041504 v -1.766602 h -1.753418 v -0.738281 h 1.753418 v -1.753418 h 0.74707 v 1.753418 h 1.753418 v 0.738281 h -1.753418 v 1.766602 z m 6.992187,1.041504 2.474121,-6.442383 h 0.918457 l 2.636719,6.442383 h -0.971191 l -0.751465,-1.951172 h -2.693848 l -0.70752,1.951172 z m 1.858887,-2.645508 h 2.184082 l -0.672363,-1.78418 q -0.307618,-0.812988 -0.457032,-1.335937 -0.123047,0.619629 -0.347168,1.230469 z m 5.996582,2.645508 v -6.442383 h 0.852539 v 6.442383 z m 8.416015,-1.041504 v -1.766602 h -1.753418 v -0.738281 h 1.753418 v -1.753418 h 0.747071 v 1.753418 h 1.753418 v 0.738281 h -1.753418 v 1.766602 z M 65.28833,25.98179 62.792236,19.539407 h 0.922852 l 1.674316,4.680176 q 0.202149,0.5625 0.338379,1.054687 0.149414,-0.527343 0.347168,-1.054687 l 1.740235,-4.680176 h 0.870117 l -2.522461,6.442383 z m 4.902344,-5.532715 v -0.909668 h 0.791015 v 0.909668 z m 0,5.532715 v -4.666992 h 0.791015 v 4.666992 z m 6.022949,0 v -0.588867 q -0.443848,0.694336 -1.305176,0.694336 -0.558105,0 -1.02832,-0.307618 -0.46582,-0.307617 -0.725098,-0.856933 -0.254883,-0.553711 -0.254883,-1.27002 0,-0.69873 0.232911,-1.265625 0.23291,-0.571289 0.69873,-0.874511 0.46582,-0.303223 1.041504,-0.303223 0.421875,0 0.751465,0.180176 0.32959,0.175781 0.536133,0.461425 v -2.311523 h 0.786621 v 6.442383 z m -2.500488,-2.329102 q 0,0.896485 0.377929,1.340332 0.37793,0.443848 0.89209,0.443848 0.518555,0 0.878907,-0.421875 0.364746,-0.42627 0.364746,-1.296387 0,-0.958008 -0.369141,-1.40625 -0.369141,-0.448242 -0.909668,-0.448242 -0.527344,0 -0.883301,0.430664 -0.351562,0.430664 -0.351562,1.35791 z m 8.672851,0.826172 0.817383,0.101074 q -0.193359,0.716309 -0.716308,1.111817 -0.52295,0.395508 -1.335938,0.395508 -1.023926,0 -1.625977,-0.628418 -0.597656,-0.632813 -0.597656,-1.770996 0,-1.177735 0.606446,-1.828125 0.606445,-0.650391 1.573242,-0.650391 0.936035,0 1.529297,0.637207 0.593261,0.637207 0.593261,1.792969 0,0.07031 -0.0044,0.210937 h -3.480469 q 0.04395,0.769043 0.435059,1.177735 0.391113,0.408691 0.975586,0.408691 0.435058,0 0.742675,-0.228516 0.307618,-0.228515 0.487793,-0.729492 z m -2.597168,-1.278808 h 2.605957 q -0.05273,-0.588868 -0.298828,-0.883301 -0.377929,-0.457031 -0.97998,-0.457031 -0.544922,0 -0.918457,0.364746 -0.369141,0.364746 -0.408692,0.975586 z m 5.113282,0.448242 q 0,-1.296387 0.720703,-1.92041 0.602051,-0.518555 1.467773,-0.518555 0.962403,0 1.573242,0.632812 0.61084,0.628418 0.61084,1.740235 0,0.900879 -0.272461,1.419433 -0.268066,0.514161 -0.786621,0.799805 -0.51416,0.285645 -1.125,0.285645 -0.97998,0 -1.586426,-0.628418 -0.60205,-0.628418 -0.60205,-1.810547 z m 0.812988,0 q 0,0.896484 0.391113,1.344726 0.391113,0.443848 0.984375,0.443848 0.588867,0 0.979981,-0.448242 0.391113,-0.448242 0.391113,-1.366699 0,-0.865723 -0.395508,-1.309571 -0.391113,-0.448242 -0.975586,-0.448242 -0.593262,0 -0.984375,0.443848 -0.391113,0.443847 -0.391113,1.340332 z"
       id="text2"
       style="font-size:9px;font-family:Arial, sans-serif;letter-spacing:1;dominant-baseline:text-after-edge;text-anchor:middle;fill:#5F6461"
       aria-label="IoT + AI + Video" />
  </g>
</svg> 